# xmcd
#
# Track frame offsets: 
#        182
#        22115
#        43242
#        62895
#        89450
#        108947
#        127722
#        147217
#        172112
#        192750
#
# Disc length: 2840 seconds
#
# Revision: 2
# Processed by: cddbd v1.5.2PL0 Copyright (c) Steve Scherf et al.
# Submitted via: ExactAudioCopy v1.0b3
#
DISCID=8a0b160a
DTITLE=Vertical Hold - A Matter Of Time
DYEAR=1993
DGENRE=R&B
TTITLE0=A.S.A.P.
TTITLE1=Seems Your're Much Too Busy
TTITLE2=You Got Something (I Want)
TTITLE3=7, 6, 5 (For Love)
TTITLE4=Matter Of Time
TTITLE5=You Can't Go Wrong
TTITLE6=I've Been Watchin' You
TTITLE7=Don't Say Goodnight (It's Time For Love)
TTITLE8=Magic Carpet Ride
TTITLE9=Waiting In The Wings
EXTD=
EXTT0=
EXTT1=
EXTT2=
EXTT3=
EXTT4=
EXTT5=
EXTT6=
EXTT7=
EXTT8=
EXTT9=
PLAYORDER=
